{
	"asset": {
		"generator": "Khronos glTF Blender I/O v3.6.28",
		"version": "2.0"
	},
	"scene": 0,
	"scenes": [
		{
			"name": "Scene",
			"nodes": [0]
		}
	],
	"nodes": [
		{
			"mesh": 0,
			"name": "Zombie",
			"scale": [0.7934604287147522, 0.7934604287147522, 0.7934604287147522]
		}
	],
	"materials": [
		{
			"name": "Material",
			"pbrMetallicRoughness": {
				"baseColorTexture": {
					"index": 0
				},
				"metallicFactor": 0,
				"roughnessFactor": 0.5
			}
		}
	],
	"meshes": [
		{
			"name": "Cube",
			"primitives": [
				{
					"attributes": {
						"POSITION": 0,
						"NORMAL": 1,
						"TEXCOORD_0": 2
					},
					"indices": 3,
					"material": 0
				}
			]
		}
	],
	"textures": [
		{
			"sampler": 0,
			"source": 0
		}
	],
	"images": [
		{
			"mimeType": "image/jpeg",
			"name": "ImphenziaPalette02-Albedo",
			"uri": "ImphenziaPalette02-Albedo.jpg"
		}
	],
	"accessors": [
		{
			"bufferView": 0,
			"componentType": 5126,
			"count": 3772,
			"max": [0.520412802696228, 2.1211040019989014, 0.25778934359550476],
			"min": [-0.49286505579948425, -0.021803200244903564, -0.492777019739151],
			"type": "VEC3"
		},
		{
			"bufferView": 1,
			"componentType": 5126,
			"count": 3772,
			"type": "VEC3"
		},
		{
			"bufferView": 2,
			"componentType": 5126,
			"count": 3772,
			"type": "VEC2"
		},
		{
			"bufferView": 3,
			"componentType": 5123,
			"count": 5676,
			"type": "SCALAR"
		}
	],
	"bufferViews": [
		{
			"buffer": 0,
			"byteLength": 45264,
			"byteOffset": 0,
			"target": 34962
		},
		{
			"buffer": 0,
			"byteLength": 45264,
			"byteOffset": 45264,
			"target": 34962
		},
		{
			"buffer": 0,
			"byteLength": 30176,
			"byteOffset": 90528,
			"target": 34962
		},
		{
			"buffer": 0,
			"byteLength": 11352,
			"byteOffset": 120704,
			"target": 34963
		}
	],
	"samplers": [
		{
			"magFilter": 9729,
			"minFilter": 9987
		}
	],
	"buffers": [
		{
			"byteLength": 132056,
			"uri": "zombie.bin"
		}
	]
}
