{
	"asset":{
		"generator":"Khronos glTF Blender I/O v3.6.28",
		"version":"2.0"
	},
	"scene":0,
	"scenes":[
		{
			"name":"Scene",
			"nodes":[
				0,
				1
			]
		}
	],
	"nodes":[
		{
			"mesh":0,
			"name":"BOTTOM",
			"translation":[
				0,
				-0.7013386487960815,
				0.023692842572927475
			]
		},
		{
			"mesh":1,
			"name":"TOP",
			"translation":[
				0,
				0.8326029181480408,
				0
			]
		}
	],
	"animations":[
		{
			"channels":[
				{
					"sampler":0,
					"target":{
						"node":0,
						"path":"translation"
					}
				},
				{
					"sampler":1,
					"target":{
						"node":0,
						"path":"rotation"
					}
				},
				{
					"sampler":2,
					"target":{
						"node":0,
						"path":"scale"
					}
				}
			],
			"name":"SpawnAction.bottom",
			"samplers":[
				{
					"input":28,
					"interpolation":"LINEAR",
					"output":29
				},
				{
					"input":28,
					"interpolation":"LINEAR",
					"output":30
				},
				{
					"input":31,
					"interpolation":"STEP",
					"output":32
				}
			]
		},
		{
			"channels":[
				{
					"sampler":0,
					"target":{
						"node":0,
						"path":"translation"
					}
				},
				{
					"sampler":1,
					"target":{
						"node":0,
						"path":"rotation"
					}
				},
				{
					"sampler":2,
					"target":{
						"node":0,
						"path":"scale"
					}
				}
			],
			"name":"SpinningAction.bottom",
			"samplers":[
				{
					"input":33,
					"interpolation":"STEP",
					"output":34
				},
				{
					"input":35,
					"interpolation":"LINEAR",
					"output":36
				},
				{
					"input":33,
					"interpolation":"STEP",
					"output":37
				}
			]
		},
		{
			"channels":[
				{
					"sampler":0,
					"target":{
						"node":1,
						"path":"translation"
					}
				},
				{
					"sampler":1,
					"target":{
						"node":1,
						"path":"rotation"
					}
				},
				{
					"sampler":2,
					"target":{
						"node":1,
						"path":"scale"
					}
				}
			],
			"name":"RotationAction",
			"samplers":[
				{
					"input":38,
					"interpolation":"STEP",
					"output":39
				},
				{
					"input":40,
					"interpolation":"LINEAR",
					"output":41
				},
				{
					"input":38,
					"interpolation":"STEP",
					"output":42
				}
			]
		},
		{
			"channels":[
				{
					"sampler":0,
					"target":{
						"node":1,
						"path":"translation"
					}
				},
				{
					"sampler":1,
					"target":{
						"node":1,
						"path":"rotation"
					}
				},
				{
					"sampler":2,
					"target":{
						"node":1,
						"path":"scale"
					}
				}
			],
			"name":"SpawnAction.top",
			"samplers":[
				{
					"input":43,
					"interpolation":"LINEAR",
					"output":44
				},
				{
					"input":43,
					"interpolation":"LINEAR",
					"output":45
				},
				{
					"input":46,
					"interpolation":"STEP",
					"output":47
				}
			]
		}
	],
	"materials":[
		{
			"doubleSided":true,
			"name":"Dark Grey",
			"pbrMetallicRoughness":{
				"baseColorFactor":[
					0.029555562883615494,
					0.029555562883615494,
					0.029555562883615494,
					1
				],
				"metallicFactor":0,
				"roughnessFactor":0.5
			}
		},
		{
			"doubleSided":true,
			"name":"light grey",
			"pbrMetallicRoughness":{
				"baseColorFactor":[
					0.5775730013847351,
					0.5775730013847351,
					0.5775730013847351,
					1
				],
				"metallicFactor":0,
				"roughnessFactor":0.5
			}
		},
		{
			"doubleSided":true,
			"name":"Yellow Teeth",
			"pbrMetallicRoughness":{
				"baseColorFactor":[
					0.22322377562522888,
					0.21334803104400635,
					0.05529724806547165,
					1
				],
				"metallicFactor":0,
				"roughnessFactor":0.5
			}
		},
		{
			"doubleSided":true,
			"name":"redSpikes",
			"pbrMetallicRoughness":{
				"baseColorFactor":[
					0.17463630437850952,
					0,
					0.0034823187161237,
					1
				],
				"metallicFactor":0,
				"roughnessFactor":0.5
			}
		},
		{
			"doubleSided":true,
			"name":"RedEyes",
			"pbrMetallicRoughness":{
				"baseColorFactor":[
					0.39674943685531616,
					0,
					0.009796077385544777,
					1
				],
				"metallicFactor":0,
				"roughnessFactor":0.5
			}
		}
	],
	"meshes":[
		{
			"name":"Cube.001",
			"primitives":[
				{
					"attributes":{
						"POSITION":0,
						"NORMAL":1,
						"TEXCOORD_0":2
					},
					"indices":3,
					"material":0
				},
				{
					"attributes":{
						"POSITION":4,
						"NORMAL":5,
						"TEXCOORD_0":6
					},
					"indices":7,
					"material":1
				},
				{
					"attributes":{
						"POSITION":8,
						"NORMAL":9,
						"TEXCOORD_0":10
					},
					"indices":11,
					"material":1
				}
			]
		},
		{
			"name":"Cube.009",
			"primitives":[
				{
					"attributes":{
						"POSITION":12,
						"NORMAL":13,
						"TEXCOORD_0":14
					},
					"indices":15,
					"material":1
				},
				{
					"attributes":{
						"POSITION":16,
						"NORMAL":17,
						"TEXCOORD_0":18
					},
					"indices":19,
					"material":2
				},
				{
					"attributes":{
						"POSITION":20,
						"NORMAL":21,
						"TEXCOORD_0":22
					},
					"indices":23,
					"material":3
				},
				{
					"attributes":{
						"POSITION":24,
						"NORMAL":25,
						"TEXCOORD_0":26
					},
					"indices":27,
					"material":4
				}
			]
		}
	],
	"accessors":[
		{
			"bufferView":0,
			"componentType":5126,
			"count":252,
			"max":[
				1.4999998807907104,
				0.7192142605781555,
				2.6795578002929688
			],
			"min":[
				-1.8248751163482666,
				-0.9619957208633423,
				-2.6795578002929688
			],
			"type":"VEC3"
		},
		{
			"bufferView":1,
			"componentType":5126,
			"count":252,
			"type":"VEC3"
		},
		{
			"bufferView":2,
			"componentType":5126,
			"count":252,
			"type":"VEC2"
		},
		{
			"bufferView":3,
			"componentType":5123,
			"count":378,
			"type":"SCALAR"
		},
		{
			"bufferView":4,
			"componentType":5126,
			"count":156,
			"max":[
				-1.498790979385376,
				-0.12490211427211761,
				1.889027714729309
			],
			"min":[
				-1.7937229871749878,
				-0.31902608275413513,
				-1.91265070438385
			],
			"type":"VEC3"
		},
		{
			"bufferView":5,
			"componentType":5126,
			"count":156,
			"type":"VEC3"
		},
		{
			"bufferView":6,
			"componentType":5126,
			"count":156,
			"type":"VEC2"
		},
		{
			"bufferView":7,
			"componentType":5123,
			"count":288,
			"type":"SCALAR"
		},
		{
			"bufferView":8,
			"componentType":5126,
			"count":18,
			"max":[
				-0.06874251365661621,
				0.7192142605781555,
				1.5
			],
			"min":[
				-1.4999998807907104,
				0.1886523813009262,
				-1.5
			],
			"type":"VEC3"
		},
		{
			"bufferView":9,
			"componentType":5126,
			"count":18,
			"type":"VEC3"
		},
		{
			"bufferView":10,
			"componentType":5126,
			"count":18,
			"type":"VEC2"
		},
		{
			"bufferView":11,
			"componentType":5123,
			"count":30,
			"type":"SCALAR"
		},
		{
			"bufferView":12,
			"componentType":5126,
			"count":72,
			"max":[
				1.288611650466919,
				1.0061533451080322,
				2.503582239151001
			],
			"min":[
				-1.288611650466919,
				-0.8930161595344543,
				-2.514366626739502
			],
			"type":"VEC3"
		},
		{
			"bufferView":13,
			"componentType":5126,
			"count":72,
			"type":"VEC3"
		},
		{
			"bufferView":14,
			"componentType":5126,
			"count":72,
			"type":"VEC2"
		},
		{
			"bufferView":15,
			"componentType":5123,
			"count":108,
			"type":"SCALAR"
		},
		{
			"bufferView":16,
			"componentType":5126,
			"count":1280,
			"max":[
				-0.8193700313568115,
				-0.4306151866912842,
				0.8565974831581116
			],
			"min":[
				-1.249741792678833,
				-0.917137861251831,
				-0.8463391661643982
			],
			"type":"VEC3"
		},
		{
			"bufferView":17,
			"componentType":5126,
			"count":1280,
			"type":"VEC3"
		},
		{
			"bufferView":18,
			"componentType":5126,
			"count":1280,
			"type":"VEC2"
		},
		{
			"bufferView":19,
			"componentType":5123,
			"count":1890,
			"type":"SCALAR"
		},
		{
			"bufferView":20,
			"componentType":5126,
			"count":128,
			"max":[
				1.1333539485931396,
				2.4693522453308105,
				1.8007209300994873
			],
			"min":[
				-1.0867514610290527,
				-0.03314816951751709,
				-1.6772342920303345
			],
			"type":"VEC3"
		},
		{
			"bufferView":21,
			"componentType":5126,
			"count":128,
			"type":"VEC3"
		},
		{
			"bufferView":22,
			"componentType":5126,
			"count":128,
			"type":"VEC2"
		},
		{
			"bufferView":23,
			"componentType":5123,
			"count":144,
			"type":"SCALAR"
		},
		{
			"bufferView":24,
			"componentType":5126,
			"count":440,
			"max":[
				-0.885617196559906,
				0.6497683525085449,
				2.255711555480957
			],
			"min":[
				-1.7035259008407593,
				-0.21023166179656982,
				-2.3440918922424316
			],
			"type":"VEC3"
		},
		{
			"bufferView":25,
			"componentType":5126,
			"count":440,
			"type":"VEC3"
		},
		{
			"bufferView":26,
			"componentType":5126,
			"count":440,
			"type":"VEC2"
		},
		{
			"bufferView":27,
			"componentType":5123,
			"count":600,
			"type":"SCALAR"
		},
		{
			"bufferView":28,
			"componentType":5126,
			"count":82,
			"max":[
				3.375
			],
			"min":[
				0
			],
			"type":"SCALAR"
		},
		{
			"bufferView":29,
			"componentType":5126,
			"count":82,
			"type":"VEC3"
		},
		{
			"bufferView":30,
			"componentType":5126,
			"count":82,
			"type":"VEC4"
		},
		{
			"bufferView":31,
			"componentType":5126,
			"count":2,
			"max":[
				3.375
			],
			"min":[
				0
			],
			"type":"SCALAR"
		},
		{
			"bufferView":32,
			"componentType":5126,
			"count":2,
			"type":"VEC3"
		},
		{
			"bufferView":33,
			"componentType":5126,
			"count":2,
			"max":[
				1.7083333333333333
			],
			"min":[
				0
			],
			"type":"SCALAR"
		},
		{
			"bufferView":34,
			"componentType":5126,
			"count":2,
			"type":"VEC3"
		},
		{
			"bufferView":35,
			"componentType":5126,
			"count":42,
			"max":[
				1.7083333333333333
			],
			"min":[
				0
			],
			"type":"SCALAR"
		},
		{
			"bufferView":36,
			"componentType":5126,
			"count":42,
			"type":"VEC4"
		},
		{
			"bufferView":37,
			"componentType":5126,
			"count":2,
			"type":"VEC3"
		},
		{
			"bufferView":38,
			"componentType":5126,
			"count":2,
			"max":[
				0.8333333333333334
			],
			"min":[
				0.041666666666666664
			],
			"type":"SCALAR"
		},
		{
			"bufferView":39,
			"componentType":5126,
			"count":2,
			"type":"VEC3"
		},
		{
			"bufferView":40,
			"componentType":5126,
			"count":20,
			"max":[
				0.8333333333333334
			],
			"min":[
				0.041666666666666664
			],
			"type":"SCALAR"
		},
		{
			"bufferView":41,
			"componentType":5126,
			"count":20,
			"type":"VEC4"
		},
		{
			"bufferView":42,
			"componentType":5126,
			"count":2,
			"type":"VEC3"
		},
		{
			"bufferView":43,
			"componentType":5126,
			"count":121,
			"max":[
				5
			],
			"min":[
				0
			],
			"type":"SCALAR"
		},
		{
			"bufferView":44,
			"componentType":5126,
			"count":121,
			"type":"VEC3"
		},
		{
			"bufferView":45,
			"componentType":5126,
			"count":121,
			"type":"VEC4"
		},
		{
			"bufferView":46,
			"componentType":5126,
			"count":2,
			"max":[
				5
			],
			"min":[
				0
			],
			"type":"SCALAR"
		},
		{
			"bufferView":47,
			"componentType":5126,
			"count":2,
			"type":"VEC3"
		}
	],
	"bufferViews":[
		{
			"buffer":0,
			"byteLength":3024,
			"byteOffset":0,
			"target":34962
		},
		{
			"buffer":0,
			"byteLength":3024,
			"byteOffset":3024,
			"target":34962
		},
		{
			"buffer":0,
			"byteLength":2016,
			"byteOffset":6048,
			"target":34962
		},
		{
			"buffer":0,
			"byteLength":756,
			"byteOffset":8064,
			"target":34963
		},
		{
			"buffer":0,
			"byteLength":1872,
			"byteOffset":8820,
			"target":34962
		},
		{
			"buffer":0,
			"byteLength":1872,
			"byteOffset":10692,
			"target":34962
		},
		{
			"buffer":0,
			"byteLength":1248,
			"byteOffset":12564,
			"target":34962
		},
		{
			"buffer":0,
			"byteLength":576,
			"byteOffset":13812,
			"target":34963
		},
		{
			"buffer":0,
			"byteLength":216,
			"byteOffset":14388,
			"target":34962
		},
		{
			"buffer":0,
			"byteLength":216,
			"byteOffset":14604,
			"target":34962
		},
		{
			"buffer":0,
			"byteLength":144,
			"byteOffset":14820,
			"target":34962
		},
		{
			"buffer":0,
			"byteLength":60,
			"byteOffset":14964,
			"target":34963
		},
		{
			"buffer":0,
			"byteLength":864,
			"byteOffset":15024,
			"target":34962
		},
		{
			"buffer":0,
			"byteLength":864,
			"byteOffset":15888,
			"target":34962
		},
		{
			"buffer":0,
			"byteLength":576,
			"byteOffset":16752,
			"target":34962
		},
		{
			"buffer":0,
			"byteLength":216,
			"byteOffset":17328,
			"target":34963
		},
		{
			"buffer":0,
			"byteLength":15360,
			"byteOffset":17544,
			"target":34962
		},
		{
			"buffer":0,
			"byteLength":15360,
			"byteOffset":32904,
			"target":34962
		},
		{
			"buffer":0,
			"byteLength":10240,
			"byteOffset":48264,
			"target":34962
		},
		{
			"buffer":0,
			"byteLength":3780,
			"byteOffset":58504,
			"target":34963
		},
		{
			"buffer":0,
			"byteLength":1536,
			"byteOffset":62284,
			"target":34962
		},
		{
			"buffer":0,
			"byteLength":1536,
			"byteOffset":63820,
			"target":34962
		},
		{
			"buffer":0,
			"byteLength":1024,
			"byteOffset":65356,
			"target":34962
		},
		{
			"buffer":0,
			"byteLength":288,
			"byteOffset":66380,
			"target":34963
		},
		{
			"buffer":0,
			"byteLength":5280,
			"byteOffset":66668,
			"target":34962
		},
		{
			"buffer":0,
			"byteLength":5280,
			"byteOffset":71948,
			"target":34962
		},
		{
			"buffer":0,
			"byteLength":3520,
			"byteOffset":77228,
			"target":34962
		},
		{
			"buffer":0,
			"byteLength":1200,
			"byteOffset":80748,
			"target":34963
		},
		{
			"buffer":0,
			"byteLength":328,
			"byteOffset":81948
		},
		{
			"buffer":0,
			"byteLength":984,
			"byteOffset":82276
		},
		{
			"buffer":0,
			"byteLength":1312,
			"byteOffset":83260
		},
		{
			"buffer":0,
			"byteLength":8,
			"byteOffset":84572
		},
		{
			"buffer":0,
			"byteLength":24,
			"byteOffset":84580
		},
		{
			"buffer":0,
			"byteLength":8,
			"byteOffset":84604
		},
		{
			"buffer":0,
			"byteLength":24,
			"byteOffset":84612
		},
		{
			"buffer":0,
			"byteLength":168,
			"byteOffset":84636
		},
		{
			"buffer":0,
			"byteLength":672,
			"byteOffset":84804
		},
		{
			"buffer":0,
			"byteLength":24,
			"byteOffset":85476
		},
		{
			"buffer":0,
			"byteLength":8,
			"byteOffset":85500
		},
		{
			"buffer":0,
			"byteLength":24,
			"byteOffset":85508
		},
		{
			"buffer":0,
			"byteLength":80,
			"byteOffset":85532
		},
		{
			"buffer":0,
			"byteLength":320,
			"byteOffset":85612
		},
		{
			"buffer":0,
			"byteLength":24,
			"byteOffset":85932
		},
		{
			"buffer":0,
			"byteLength":484,
			"byteOffset":85956
		},
		{
			"buffer":0,
			"byteLength":1452,
			"byteOffset":86440
		},
		{
			"buffer":0,
			"byteLength":1936,
			"byteOffset":87892
		},
		{
			"buffer":0,
			"byteLength":8,
			"byteOffset":89828
		},
		{
			"buffer":0,
			"byteLength":24,
			"byteOffset":89836
		}
	],
	"buffers":[
		{
			"byteLength":89860,
			"uri":"printer.bin"
		}
	]
}
