{
	"asset":{
		"generator":"Khronos glTF Blender I/O v3.6.28",
		"version":"2.0"
	},
	"scene":0,
	"scenes":[
		{
			"name":"Scene",
			"nodes":[
				23
			]
		}
	],
	"nodes":[
		{
			"mesh":0,
			"name":"Player",
			"scale":[
				4.858007431030273,
				4.858007431030273,
				4.858007431030273
			],
			"translation":[
				0,
				-4.591038703918457,
				0
			]
		},
		{
			"name":"head",
			"rotation":[
				-0.04971039667725563,
				-0.00011557614925550297,
				-0.0023226826451718807,
				0.998760998249054
			],
			"scale":[
				0.9999999403953552,
				1,
				1
			],
			"translation":[
				9.313261273291573e-09,
				1.3449897766113281,
				7.118075018297532e-09
			]
		},
		{
			"name":"hand.l",
			"rotation":[
				-0.05243276432156563,
				0.0038784053176641464,
				0.07366617769002914,
				0.9958961009979248
			],
			"scale":[
				1,
				0.9999999403953552,
				1.0000001192092896
			],
			"translation":[
				-4.76837158203125e-07,
				1.2755959033966064,
				-1.4406893455998215e-08
			]
		},
		{
			"children":[
				2
			],
			"name":"lowerarm.l",
			"rotation":[
				0.0955757275223732,
				-0.0007029878906905651,
				-0.07643807679414749,
				0.9924827218055725
			],
			"scale":[
				1,
				1.0000001192092896,
				1
			],
			"translation":[
				6.93043659794057e-07,
				1.5449763536453247,
				4.470348358154297e-08
			]
		},
		{
			"children":[
				3
			],
			"name":"upperarm.l",
			"rotation":[
				-0.04327184334397316,
				0.0031965351663529873,
				-0.07360213249921799,
				0.9963433742523193
			],
			"scale":[
				0.9999999403953552,
				1,
				1
			],
			"translation":[
				4.440892098500626e-15,
				1.6272259950637817,
				-5.684341886080802e-14
			]
		},
		{
			"children":[
				4
			],
			"name":"shoulder.l",
			"rotation":[
				-0.02666531130671501,
				-0.04195370152592659,
				-0.8429156541824341,
				0.5357444286346436
			],
			"scale":[
				1,
				0.9999998807907104,
				0.9999998807907104
			],
			"translation":[
				0.3620296120643616,
				1.0521373748779297,
				0.029224149882793427
			]
		},
		{
			"name":"hand.r",
			"rotation":[
				-0.05243273079395294,
				-0.0038784027565270662,
				-0.07366611808538437,
				0.9958961009979248
			],
			"scale":[
				1.0000001192092896,
				0.9999999403953552,
				1
			],
			"translation":[
				-9.5367431640625e-07,
				1.2755954265594482,
				2.2846030844902998e-08
			]
		},
		{
			"children":[
				6
			],
			"name":"lowerarm.r",
			"rotation":[
				0.0955757275223732,
				0.0007029850385151803,
				0.07643808424472809,
				0.9924827814102173
			],
			"scale":[
				1,
				0.9999998211860657,
				1
			],
			"translation":[
				2.2796609044917204e-08,
				1.5449769496917725,
				1.1920928955078125e-07
			]
		},
		{
			"children":[
				7
			],
			"name":"upperarm.r",
			"rotation":[
				-0.04327185079455376,
				-0.00319654424674809,
				0.07360213249921799,
				0.9963433742523193
			],
			"scale":[
				0.9999998807907104,
				0.9999999403953552,
				1
			],
			"translation":[
				-2.384185791015625e-07,
				1.6272255182266235,
				1.9895196601282805e-13
			]
		},
		{
			"children":[
				8
			],
			"name":"shoulder.r",
			"rotation":[
				-0.027087578549981117,
				0.04168231785297394,
				0.8374614119529724,
				0.5442309379577637
			],
			"scale":[
				0.9999999403953552,
				0.9999998211860657,
				1
			],
			"translation":[
				-0.31383180618286133,
				1.058930516242981,
				0.02854636125266552
			]
		},
		{
			"children":[
				1,
				5,
				9
			],
			"name":"spine2",
			"rotation":[
				0.09761903434991837,
				1.821376542920916e-07,
				0.00017243526235688478,
				0.995223879814148
			],
			"scale":[
				0.9999999403953552,
				0.9999998807907104,
				0.9999999403953552
			],
			"translation":[
				6.139598163201754e-09,
				1.3920753002166748,
				8.951883501140401e-08
			]
		},
		{
			"children":[
				10
			],
			"name":"spine1",
			"rotation":[
				-0.004870214499533176,
				-0.9884404540061951,
				-0.15153144299983978,
				0.00027320743538439274
			],
			"scale":[
				0.9999999403953552,
				0.9999998211860657,
				1
			],
			"translation":[
				0,
				1.022061824798584,
				0
			]
		},
		{
			"name":"foot.l",
			"rotation":[
				0.6179743409156799,
				-0.00931992381811142,
				-0.034284304827451706,
				0.785395085811615
			],
			"scale":[
				1.0000001192092896,
				1,
				1
			],
			"translation":[
				9.675802203901185e-08,
				1.4394291639328003,
				-1.1175870895385742e-08
			]
		},
		{
			"children":[
				12
			],
			"name":"lowerleg.l",
			"rotation":[
				-0.12985263764858246,
				-0.0003311128821223974,
				0.015007083304226398,
				0.9914196729660034
			],
			"scale":[
				1,
				1.000000238418579,
				1
			],
			"translation":[
				6.254711593101092e-08,
				2.7426562309265137,
				-1.1641532182693481e-08
			]
		},
		{
			"children":[
				13
			],
			"name":"upperleg.l",
			"rotation":[
				-0.9873633980751038,
				0.01768014393746853,
				0.0008845810079947114,
				0.15748044848442078
			],
			"scale":[
				1,
				1,
				1.000001072883606
			],
			"translation":[
				-1.0466912984848022,
				-0.007843226194381714,
				-0.04483047127723694
			]
		},
		{
			"name":"foot.r",
			"rotation":[
				0.6179743409156799,
				0.00931992381811142,
				0.034284304827451706,
				0.785395085811615
			],
			"scale":[
				1.0000001192092896,
				1,
				1
			],
			"translation":[
				-9.675802203901185e-08,
				1.4394291639328003,
				-1.1175870895385742e-08
			]
		},
		{
			"children":[
				15
			],
			"name":"lowerleg.r",
			"rotation":[
				-0.12985263764858246,
				0.0003311128821223974,
				-0.015007083304226398,
				0.9914196729660034
			],
			"scale":[
				1,
				1.000000238418579,
				1
			],
			"translation":[
				-6.254711593101092e-08,
				2.7426562309265137,
				-1.1641532182693481e-08
			]
		},
		{
			"children":[
				16
			],
			"name":"upperleg.r",
			"rotation":[
				-0.9873633980751038,
				-0.01768014393746853,
				-0.0008845810079947114,
				0.15748044848442078
			],
			"scale":[
				1,
				1,
				1.000001072883606
			],
			"translation":[
				1.0466912984848022,
				-0.007843226194381714,
				-0.04483047127723694
			]
		},
		{
			"children":[
				11,
				14,
				17
			],
			"name":"pelvis",
			"rotation":[
				-0.10388784110546112,
				0,
				0,
				0.9945890307426453
			],
			"scale":[
				1,
				0.9999999403953552,
				0.9999999403953552
			],
			"translation":[
				0,
				4.76837158203125e-07,
				0.21121039986610413
			]
		},
		{
			"name":"IKPose.l",
			"rotation":[
				-0.7124834060668945,
				0,
				0,
				0.7016889452934265
			],
			"translation":[
				-1.143211007118225,
				-2.7418527603149414,
				-2.8186252117156982
			]
		},
		{
			"name":"IKTarget.l",
			"rotation":[
				0.7036322951316833,
				0,
				0,
				0.710564374923706
			],
			"scale":[
				1,
				0.9999999403953552,
				0.9999999403953552
			],
			"translation":[
				-1.2362349033355713,
				-4.161577224731445,
				0.09122622013092041
			]
		},
		{
			"name":"IKPose.r",
			"rotation":[
				-0.7124834060668945,
				0,
				0,
				0.7016889452934265
			],
			"translation":[
				1.143211007118225,
				-2.7418527603149414,
				-2.8186252117156982
			]
		},
		{
			"name":"IKTarget.r",
			"rotation":[
				0.7036322951316833,
				0,
				0,
				0.710564374923706
			],
			"scale":[
				1,
				0.9999999403953552,
				0.9999999403953552
			],
			"translation":[
				1.2362349033355713,
				-4.161577224731445,
				0.09122622013092041
			]
		},
		{
			"children":[
				0,
				18,
				19,
				20,
				21,
				22
			],
			"name":"Armature",
			"scale":[
				0.16333043575286865,
				0.16333043575286865,
				0.16333043575286865
			],
			"translation":[
				0,
				0.7498564124107361,
				0
			]
		}
	],
	"materials":[
		{
			"doubleSided":true,
			"name":"Material",
			"pbrMetallicRoughness":{
				"baseColorTexture":{
					"index":0
				},
				"metallicFactor":0,
				"roughnessFactor":0.5
			}
		}
	],
	"meshes":[
		{
			"name":"Cube",
			"primitives":[
				{
					"attributes":{
						"POSITION":0,
						"NORMAL":1,
						"TEXCOORD_0":2
					},
					"indices":3,
					"material":0
				}
			]
		}
	],
	"textures":[
		{
			"sampler":0,
			"source":0
		}
	],
	"images":[
		{
			"mimeType":"image/png",
			"name":"ImphenziaPalette02-Albedo",
			"uri":"ImphenziaPalette02-Albedo.png"
		}
	],
	"skins":[
		{
			"inverseBindMatrices":4,
			"joints":[
				18,
				11,
				10,
				1,
				5,
				4,
				3,
				2,
				9,
				8,
				7,
				6,
				14,
				13,
				12,
				17,
				16,
				15,
				19,
				20,
				21,
				22
			],
			"name":"Armature"
		}
	],
	"accessors":[
		{
			"bufferView":0,
			"componentType":5126,
			"count":3112,
			"max":[
				0.4517829120159149,
				2.2463879585266113,
				0.3859599530696869
			],
			"min":[
				-0.46164995431900024,
				-0.024578392505645752,
				-0.39691072702407837
			],
			"type":"VEC3"
		},
		{
			"bufferView":1,
			"componentType":5126,
			"count":3112,
			"type":"VEC3"
		},
		{
			"bufferView":2,
			"componentType":5126,
			"count":3112,
			"type":"VEC2"
		},
		{
			"bufferView":3,
			"componentType":5123,
			"count":4872,
			"type":"SCALAR"
		},
		{
			"bufferView":4,
			"componentType":5126,
			"count":22,
			"type":"MAT4"
		}
	],
	"bufferViews":[
		{
			"buffer":0,
			"byteLength":37344,
			"byteOffset":0,
			"target":34962
		},
		{
			"buffer":0,
			"byteLength":37344,
			"byteOffset":37344,
			"target":34962
		},
		{
			"buffer":0,
			"byteLength":24896,
			"byteOffset":74688,
			"target":34962
		},
		{
			"buffer":0,
			"byteLength":9744,
			"byteOffset":99584,
			"target":34963
		},
		{
			"buffer":0,
			"byteLength":1408,
			"byteOffset":109328
		}
	],
	"samplers":[
		{
			"magFilter":9729,
			"minFilter":9987
		}
	],
	"buffers":[
		{
			"byteLength":110736,
			"uri":"player.bin"
		}
	]
}
